<svg xmlns="http://www.w3.org/2000/svg" xml:space="preserve" width="512px" height="512px" version="1.1" style="shape-rendering:geometricPrecision; text-rendering:geometricPrecision; image-rendering:optimizeQuality; fill-rule:evenodd; clip-rule:evenodd" viewBox="0 0 512 512" xmlns:xlink="http://www.w3.org/1999/xlink">
 <defs>
  <style type="text/css">
   
    .fil0 {fill:black}
   
  </style>
 </defs>
 <g id="Layer_x0020_1">
  <metadata id="CorelCorpID_0Corel-Layer"></metadata>
  <path class="fil0" d="M486 450l-127 0c-14,0 -26,-11 -26,-26l0 -15 64 0 25 0 25 0 65 0 0 15c0,15 -12,26 -26,26zm-47 -277l-33 0c-4,0 -8,-3 -8,-7 0,-4 4,-8 8,-8l33 0c4,0 7,4 7,8 0,4 -3,7 -7,7zm40 0l-13 0c-4,0 -7,-3 -7,-7 0,-4 3,-8 7,-8l13 0c4,0 7,4 7,8 0,4 -3,7 -7,7zm-25 151c-7,-3 -11,-9 -11,-16 0,-10 8,-18 18,-18 10,0 18,8 18,18 0,6 -4,13 -10,16l0 18c0,2 -1,3 -2,5l-12 15 0 32 57 0 0 -194 -179 0 0 194 57 0 0 -33 -12 -15c-1,-1 -2,-3 -2,-4l0 -18c-6,-3 -10,-9 -10,-16 0,-10 8,-18 18,-18 10,0 18,8 18,18 0,7 -4,13 -11,16l0 15 12 15c1,1 2,3 2,5l0 35 10 0 0 -42c-6,-3 -11,-9 -11,-17 0,-10 8,-17 18,-17 10,0 18,7 18,17 1,8 -4,14 -10,17l0 42 10 0 0 -35c0,-2 0,-3 2,-4l12 -15 0 -16zm58 -139l0 -13c0,-14 -11,-26 -26,-26l-127 0c-14,0 -26,12 -26,26l0 13 179 0zm-69 252l-41 0c-4,0 -7,-3 -7,-7 0,-4 3,-8 7,-8l41 0c4,0 8,4 8,8 0,4 -4,7 -8,7z" id="id_101" style="fill: rgb(30, 140, 235);"></path>
  <path class="fil0" d="M319 360l-312 0c-4,0 -7,-4 -7,-8l0 -32 319 0 0 40zm0 -55l-319 0 0 -236c0,-4 3,-7 7,-7l407 0c4,0 8,3 8,7l0 63 -63 0c-22,0 -40,18 -40,40l0 27 0 106zm-223 -130c-4,0 -6,-3 -7,-6l-3 -25c-1,-3 1,-6 3,-7l24 -9c4,-1 7,0 9,3 1,3 -1,7 -4,9l-11 4 160 93 -2 -13c-1,-4 2,-7 5,-7 3,-1 7,2 7,5l4 25 0 0c1,2 0,4 0,5 -2,1 -3,2 -5,3l-23 8c0,1 -1,1 -2,1 -3,0 -5,-1 -6,-4 -1,-3 1,-7 4,-8l11 -5 -160 -92 2 12c0,4 -2,7 -5,8 -1,0 -1,0 -1,0z" id="id_102" style="fill: rgb(30, 215, 235);"></path>
  <path class="fil0" d="M313 450l-204 0c-2,0 -4,-1 -6,-3 -1,-2 -1,-4 0,-6l14 -41c2,-3 4,-5 7,-5l174 0c3,0 5,2 6,5l15 41c1,2 1,4 -1,6 -1,2 -3,3 -5,3z" id="id_103" style="fill: rgb(26, 216, 237);"></path>
  <path class="fil0" d="M233 410c-3,0 -6,-2 -7,-6l-31 0c0,4 -3,6 -7,6 -4,0 -7,-3 -7,-8l0 -28 60 0 0 28c0,5 -4,8 -8,8z" id="id_104" style="fill: rgb(29, 216, 237);"></path>
 </g>
</svg>